<?xml version="1.0" encoding="UTF-8"?>
<svg id="Layer_1" data-name="Layer 1" xmlns="http://www.w3.org/2000/svg" xmlns:xlink="http://www.w3.org/1999/xlink" viewBox="0 0 450 150">
  <defs>
    <style>
      .cls-1 {
        letter-spacing: -.03em;
      }

      .cls-2 {
        fill: none;
      }

      .cls-3 {
        clip-path: url(#clippath-1);
      }

      .cls-4 {
        letter-spacing: -.03em;
      }

      .cls-5 {
        clip-path: url(#clippath-3);
      }

      .cls-6 {
        font-family: Sora-Bold, Sora;
        font-size: 72px;
        font-weight: 700;
      }

      .cls-6, .cls-7 {
        fill: #1f4e79;
      }

      .cls-8 {
        clip-path: url(#clippath-2);
      }

      .cls-9 {
        clip-path: url(#clippath);
      }
    </style>
    <clipPath id="clippath">
      <rect class="cls-2" x="83.07" y="29.03" width="94.27" height="94.27"/>
    </clipPath>
    <clipPath id="clippath-1">
      <rect class="cls-2" x="83.07" y="29.03" width="94.27" height="94.27"/>
    </clipPath>
    <clipPath id="clippath-2">
      <rect class="cls-2" x="71.84" y="34.6" width="117.91" height="80.12"/>
    </clipPath>
    <clipPath id="clippath-3">
      <rect class="cls-2" x="71.84" y="34.6" width="117.91" height="80.12"/>
    </clipPath>
  </defs>
  <text class="cls-6" transform="translate(178.54 101.2)"><tspan class="cls-4" x="0" y="0">X</tspan><tspan class="cls-1" x="49.75" y="0">ilos</tspan></text>
  <g class="cls-9">
    <g class="cls-3">
      <g class="cls-8">
        <g class="cls-5">
          <path class="cls-7" d="M151.49,69.37c-.25.04-.15-.04-.2-.13-.79-1.55-1.52-3.12-2.35-4.64l.56-5.32-9.26-2.74c6.79,8.49,11.76,18.58,13.31,29.45.15,1.05.43,2.64.29,3.66-.13.94-3.19,4.83-3.96,5.77-4.28,5.21-9.83,10.06-15.71,13.39-1.1.62-2.96,1.83-4.2,1.53-.79-.19-2.83-1.46-3.64-1.94-6.59-3.92-12.61-9.48-17.11-15.67-1-1.37-2.02-2.41-1.95-4.2.09-2.33,1.31-8.5,2.27-10.58.04-.09.06-.22.19-.23.49,1.58,1.42,3.01,2.17,4.48-.31,1.26-.6,2.53-.81,3.81-.12.72-.41,2.05-.39,2.71.01.4,2.05,2.98,2.45,3.49,2.37,3.01,5.05,5.89,8.06,8.26,3.64-2,7.23-4.12,10.5-6.7,5.03-3.96,9.1-8.72,12.26-14.29.4-.7.72-1.52,1.21-2.14l1.31,4.46c-5.09,9.14-13.22,16.11-22.37,21,1.46,1.04,2.95,2.06,4.51,2.96.41.24,1.45.92,1.82,1.02.13.04.25.07.38,0,7.37-3.99,13.85-9.61,18.69-16.46.24-.35.96-1.23.97-1.59.03-.82-.35-2.57-.51-3.46-1.7-9.81-6.57-19.93-13.15-27.38-.59-.67-2.19-2.51-2.83-2.93-.54-.35-1.63-.39-2.22-.71l3.24-2.77c4.14,1.17,8.3,2.3,12.42,3.54,1.3.39,2.9.77,4.14,1.25,1.64.64,1.43,1.91,1.37,3.45-.05,1.33-.22,2.73-.39,4.05-.24,1.9-.69,3.76-1.03,5.63"/>
          <path class="cls-7" d="M156.21,85.52l-.95-5.34c3.82-9,5.51-18.94,4.53-28.71l-.27-.2-19.3-6.02c-.61-.3-.96-.03-1.48.27-8.13,4.59-16.03,13.24-20.68,21.27l-1.81,3.33c-.52-1.61-1.02-3.25-1.21-4.94,5.15-8.82,12.46-16.72,21.16-22.12,1.16-.72,2.44-1.76,3.87-1.43,6.52,2.09,13.12,3.93,19.62,6.07,1.94.64,3.09.51,3.41,2.82,1.46,10.6-1.12,24.96-6.4,34.3-.13.22-.28.54-.49.69"/>
          <path class="cls-7" d="M135.24,40.27l-3.59,2.41-1.18-.24c-9.72,2.8-19.38,5.87-29.03,8.9-.06.16-.09.33-.12.5-.1.74-.16,1.71-.19,2.45-.35,8.87,1.28,17.8,4.8,25.91l-1.11,5.22c-3-5.48-5.04-11.48-6.11-17.65-.9-5.17-1.24-10.71-.78-15.94.1-1.11.07-2.78,1.23-3.31,10.42-3.32,20.88-6.66,31.42-9.6l4.68,1.33Z"/>
          <path class="cls-7" d="M120.22,53.21l-3.44,4.44-5.05,1.52c.39,13.13,6.64,25.32,16.62,33.67l-2.88,1.84c-9.39-7.86-15.39-19.03-16.85-31.24-.17-1.46-.48-3.87-.39-5.28.03-.46.24-1.08.57-1.42.48-.49,2.91-1.15,3.71-1.39,2.55-.79,5.15-1.47,7.73-2.15"/>
          <path class="cls-7" d="M130.4,64.29c4.39-.15,6.71,5.04,3.98,8.33-.23.27-1.11.94-1.13,1.14l1.61,7.37c.04.67-.46,1.13-1.11,1.17-.28.02-.48-.09-.74-.09-1.98,0-3.97.02-5.95,0-.7-.16-.81-.81-.69-1.44l1.55-7c-.03-.26-.78-.78-1.01-1.05-2.74-3.1-.75-8.28,3.48-8.43"/>
        </g>
      </g>
    </g>
  </g>
</svg>